<svg width="50" height="51" viewBox="0 0 50 51" fill="none" xmlns="http://www.w3.org/2000/svg">
<g clip-path="url(#clip0_3_326)">
<path d="M21.7757 20.6613C21.7757 21.1063 21.4142 21.4677 20.9693 21.4677C20.5243 21.4677 20.1628 21.1063 20.1628 20.6613C20.1628 20.2163 20.5243 19.8548 20.9693 19.8548C21.4142 19.8548 21.7757 20.2163 21.7757 20.6613ZM29.0338 19.8548C28.5888 19.8548 28.2273 20.2163 28.2273 20.6613C28.2273 21.1063 28.5888 21.4677 29.0338 21.4677C29.4787 21.4677 29.8402 21.1063 29.8402 20.6613C29.8402 20.2163 29.4787 19.8548 29.0338 19.8548ZM25.0015 27.1129C24.112 27.1129 23.3886 26.3895 23.3886 25.5H21.7757C21.7757 27.2791 23.2224 28.7258 25.0015 28.7258C26.7806 28.7258 28.2273 27.2791 28.2273 25.5H26.6144C26.6144 26.3895 25.8911 27.1129 25.0015 27.1129ZM41.937 6.95161V15.224C42.415 15.4808 42.7651 15.9525 42.8372 16.5219L43.5314 22.0805C43.5436 22.175 43.5499 22.2718 43.5499 22.3687C43.5499 23.6508 42.5072 24.6936 41.2251 24.6936H41.036C39.7539 24.6936 38.7112 23.6508 38.7112 22.3687C38.7112 22.2718 38.7175 22.175 38.7289 22.0789L39.4231 16.5227C39.4952 15.9525 39.8449 15.4808 40.3233 15.224V6.95161H38.7104V13.1784L38.1587 13.3623C38.0985 13.3824 37.6102 13.5403 36.7498 13.7509C36.9805 14.6877 37.0983 15.6525 37.0983 16.629V21.4677C37.0983 22.1911 37.3491 22.5042 37.7271 22.9775C38.1662 23.5248 38.7112 24.2049 38.7112 25.4961C38.7112 26.7873 38.1662 27.4685 37.7271 28.0162C37.3483 28.4895 37.0983 28.8034 37.0983 29.5275C37.0983 30.2533 37.3629 30.5848 37.7279 31.042C38.1662 31.5893 38.7112 32.271 38.7112 33.5622C38.7112 33.8961 38.675 34.2024 38.6025 34.4926C40.5974 35.3928 41.937 37.3999 41.937 39.633V50.5H8.06603V39.633C8.06603 37.3991 9.40644 35.392 11.4017 34.4919C11.3288 34.2016 11.2918 33.8953 11.2918 33.5622C11.2918 32.271 11.8368 31.5893 12.2751 31.042C12.6401 30.5848 12.9047 30.2541 12.9047 29.5275C12.9047 28.8034 12.6539 28.4895 12.2759 28.0162C11.8368 27.4685 11.2918 26.7873 11.2918 25.4961C11.2918 24.2049 11.8368 23.5248 12.2759 22.9775C12.6539 22.5042 12.9047 22.1911 12.9047 21.4677V16.629C12.9047 15.6525 13.0225 14.6877 13.2524 13.7501C12.3916 13.5403 11.9038 13.3816 11.8435 13.3615L11.2918 13.1784V6.95161H8.06603C7.17649 6.95161 6.45312 6.22825 6.45312 5.33871V2.1129C6.45312 1.22337 7.17649 0.5 8.06603 0.5H41.937C42.8265 0.5 43.5499 1.22337 43.5499 2.1129V5.33871C43.5499 6.22825 42.8265 6.95161 41.937 6.95161ZM41.937 22.3687C41.937 22.3396 41.9354 22.3104 41.9315 22.2821L41.2369 16.7228C41.2298 16.67 41.1837 16.629 41.1305 16.629C41.0774 16.629 41.0313 16.67 41.0242 16.7235L40.3296 22.2805C40.3257 22.3104 40.3241 22.3396 40.3241 22.3687C40.3241 22.7613 40.6434 23.0806 41.036 23.0806H41.2251C41.6176 23.0806 41.937 22.7613 41.937 22.3687ZM14.8291 14.0943C14.624 14.9193 14.5176 15.7686 14.5176 16.629V18.2628C14.9886 17.9064 15.5312 17.6395 16.1305 17.5178V15.8226H17.7434V17.4095C19.9943 17.2953 22.1088 16.4589 23.8186 15.0016C19.9352 14.9267 16.8815 14.4967 14.8291 14.0943ZM33.8725 23.7386C34.8089 23.4047 35.4854 22.5175 35.4854 21.4677C35.4854 20.4179 34.8089 19.5308 33.8725 19.1968V23.7386ZM29.0338 31.7791C27.8225 32.4001 26.4538 32.7581 25.0015 32.7581C23.5493 32.7581 22.1805 32.4001 20.9693 31.7791V32.6766C21.3532 34.5935 23.0484 35.9839 25.0015 35.9839C26.9546 35.9839 28.6498 34.5935 29.0338 32.6773V31.7791ZM32.2596 23.8871V19.0252C29.5618 18.9066 27.0247 17.8986 25.0015 16.1211C22.9783 17.8978 20.4412 18.9058 17.7434 19.0252V23.8871C17.7434 27.8894 20.9992 31.1452 25.0015 31.1452C29.0038 31.1452 32.2596 27.8894 32.2596 23.8871ZM16.1305 23.7386V19.1976C15.1941 19.5316 14.5176 20.4187 14.5176 21.4685C14.5176 22.5187 15.1941 23.4047 16.1305 23.7386ZM12.9047 33.5622C12.9047 33.726 12.9217 33.8599 12.9433 33.9815L19.3564 32.1501V30.7242C17.7651 29.4082 16.6476 27.5461 16.2743 25.4299C15.2001 25.2452 14.279 24.6498 13.6718 23.8111C13.625 23.871 13.5789 23.9288 13.5336 23.9855C13.1548 24.4589 12.9047 24.7719 12.9047 25.4961C12.9047 26.221 13.1556 26.5341 13.5344 27.0082C13.9727 27.5555 14.5176 28.2371 14.5176 29.5275C14.5176 30.8195 13.9727 31.5007 13.5344 32.0493C13.1556 32.5234 12.9047 32.8372 12.9047 33.5622ZM20.8314 48.8871C20.4983 47.9483 19.6017 47.2742 18.5499 47.2742H11.2918V45.6613H12.9047V44.0484H9.67893V48.8871H20.8314ZM24.1951 41.629C24.1951 40.2953 23.1094 39.2097 21.7757 39.2097H17.7434V45.6613H18.5499C20.4967 45.6613 22.1258 47.0494 22.5006 48.8871H24.1951V41.629ZM27.5024 48.8871C27.8773 47.0494 29.5055 45.6613 31.4531 45.6613H32.2596V39.2097H28.2273C26.8936 39.2097 25.808 40.2953 25.808 41.629V48.8871H27.5024ZM40.3241 48.8871V44.0484H37.0983V45.6613H38.7112V47.2742H31.4531C30.4014 47.2742 29.5047 47.9483 29.1716 48.8871H40.3241ZM37.3999 35.7575L30.388 33.7531C29.5693 36.0429 27.4339 37.5968 25.0015 37.5968C22.5499 37.5968 20.4038 36.0177 19.6111 33.7539L12.6031 35.7563C10.8815 36.2485 9.67893 37.8429 9.67893 39.633V42.4355H12.9047V40.8226H14.5176V45.6613H16.1305V37.5968H21.7757C23.0992 37.5968 24.2659 38.2469 25.0015 39.2345C25.7371 38.2469 26.9038 37.5968 28.2273 37.5968H33.8725V45.6613H35.4854V40.8226H37.0983V42.4355H40.3241V39.633C40.3241 37.8429 39.1215 36.2485 37.3999 35.7575ZM36.332 23.8131C35.7224 24.6589 34.7982 25.2539 33.728 25.4331C33.3539 27.5476 32.2371 29.409 30.6459 30.725V32.1509L37.0581 33.9823C37.0814 33.8599 37.0983 33.726 37.0983 33.5622C37.0983 32.8372 36.8475 32.5234 36.4686 32.0493C36.0304 31.5007 35.4854 30.8195 35.4854 29.5275C35.4854 28.2363 36.0304 27.5555 36.4686 27.0082C36.8475 26.5341 37.0983 26.2218 37.0983 25.4961C37.0983 24.7719 36.8475 24.4589 36.4694 23.9855C36.4241 23.93 36.3781 23.8717 36.332 23.8131ZM35.1739 14.0943C33.1216 14.4967 30.0678 14.9267 26.1844 15.0016C27.8942 16.4581 30.0088 17.2945 32.2596 17.4095V15.8226H33.8725V17.517C34.4718 17.6395 35.0144 17.9057 35.4854 18.262V16.629C35.4854 15.7686 35.3791 14.9193 35.1739 14.0943ZM41.937 5.33871V2.1129H8.06603V5.33871H12.9047V11.9927C14.3751 12.3936 18.7039 13.4032 25.0015 13.4032C31.2992 13.4032 35.6279 12.3936 37.0983 11.9927V6.95161H14.483V5.33871H41.937ZM19.3564 42.4355H22.5822V40.8226H19.3564V42.4355ZM30.6467 40.8226H27.4209V42.4355H30.6467V40.8226ZM29.0338 44.0484H27.4209V45.6613H29.0338V44.0484ZM20.9693 45.6613H22.5822V44.0484H20.9693V45.6613Z" fill="url(#paint0_linear_3_326)"/>
</g>
<defs>
<linearGradient id="paint0_linear_3_326" x1="25.0015" y1="50.5" x2="25.0015" y2="0.5" gradientUnits="userSpaceOnUse">
<stop stop-color="#2E5077"/>
<stop offset="1" stop-color="#D7B483"/>
</linearGradient>
<clipPath id="clip0_3_326">
<rect width="50" height="50" fill="white" transform="translate(0 0.5)"/>
</clipPath>
</defs>
</svg>
