<svg width="51" height="51" viewBox="0 0 51 51" fill="none" xmlns="http://www.w3.org/2000/svg">
<path d="M25.4514 12.7229C22.6791 12.7229 19.969 13.5449 17.6639 15.0852C15.3588 16.6254 13.5622 18.8146 12.5013 21.3759C11.4404 23.9371 11.1628 26.7555 11.7036 29.4746C12.2445 32.1936 13.5795 34.6912 15.5398 36.6516C17.5002 38.6119 19.9978 39.9469 22.7168 40.4877C25.4359 41.0286 28.2542 40.751 30.8155 39.6901C33.3768 38.6292 35.566 36.8326 37.1062 34.5275C38.6464 32.2223 39.4685 29.5123 39.4685 26.74C39.4651 23.0235 37.9872 19.4601 35.3592 16.8322C32.7312 14.2042 29.1679 12.7263 25.4514 12.7229ZM25.4514 39.1944C22.9882 39.1944 20.5802 38.464 18.5321 37.0955C16.484 35.727 14.8876 33.7819 13.945 31.5061C13.0023 29.2304 12.7557 26.7262 13.2362 24.3103C13.7168 21.8943 14.903 19.6752 16.6447 17.9334C18.3865 16.1916 20.6057 15.0054 23.0216 14.5249C25.4375 14.0443 27.9417 14.2909 30.2175 15.2336C32.4932 16.1762 34.4383 17.7725 35.8069 19.8206C37.1754 21.8688 37.9058 24.2767 37.9058 26.74C37.9023 30.042 36.589 33.2078 34.2541 35.5427C31.9192 37.8775 28.7534 39.1909 25.4514 39.1944ZM42.7735 26.74C42.7736 22.4233 41.1601 18.2626 38.2496 15.0747L39.3279 14.0043L41.1093 15.7857C41.1806 15.8588 41.2656 15.9172 41.3594 15.9574C41.4533 15.9976 41.5541 16.019 41.6562 16.0201C41.79 16.0133 41.9207 15.9777 42.0393 15.9156C42.158 15.8536 42.2619 15.7666 42.3438 15.6607C43.0697 14.9247 43.4766 13.9324 43.4766 12.8987C43.4766 11.8649 43.0696 10.8727 42.3438 10.1367C41.9921 9.72315 41.559 9.38639 41.0716 9.14735C40.5842 8.9083 40.0528 8.77209 39.5105 8.74719C38.9683 8.72228 38.4266 8.80921 37.9194 9.00256C37.4121 9.19592 36.95 9.49157 36.5619 9.87113C36.4539 9.95163 36.3649 10.055 36.3015 10.1738C36.238 10.2927 36.2016 10.4241 36.1947 10.5586C36.1952 10.6608 36.2161 10.7619 36.2564 10.8559C36.2967 10.9498 36.3554 11.0347 36.4291 11.1055L38.2184 12.8948L37.1402 13.9652C34.1528 11.2152 30.2893 9.61004 26.2327 9.43348V8.49589H28.7564C28.8746 8.4923 28.9906 8.4632 29.0964 8.41058C29.2023 8.35796 29.2955 8.28307 29.3697 8.19105C29.4439 8.09902 29.4974 7.99204 29.5264 7.87743C29.5554 7.76282 29.5592 7.6433 29.5377 7.52705C29.4421 2.32361 21.452 2.32499 21.3572 7.52715C21.3357 7.64339 21.3396 7.7629 21.3686 7.8775C21.3976 7.99211 21.4511 8.09908 21.5253 8.19109C21.5995 8.28311 21.6927 8.35799 21.7986 8.4106C21.9044 8.46321 22.0204 8.49231 22.1386 8.4959H24.6701V9.4335C20.7197 9.60646 16.9488 11.1319 13.9893 13.7543L12.786 12.551L14.5675 10.7695C14.649 10.6835 14.711 10.581 14.7493 10.4689C14.7876 10.3567 14.8013 10.2377 14.7894 10.1198C14.7776 10.0019 14.7404 9.8879 14.6805 9.78566C14.6206 9.68342 14.5394 9.59528 14.4424 9.52727C14.0535 9.14764 13.5908 8.85196 13.0829 8.65861C12.575 8.46525 12.0328 8.37833 11.4899 8.40324C10.947 8.42816 10.415 8.56437 9.927 8.80344C9.43895 9.0425 9.00524 9.37931 8.65277 9.79297C7.92691 10.529 7.51997 11.5212 7.51998 12.5549C7.51999 13.5887 7.92695 14.5809 8.65283 15.3169C8.72002 15.4136 8.8072 15.4947 8.90847 15.5547C9.00973 15.6148 9.12271 15.6523 9.23976 15.6649C9.35682 15.6775 9.47521 15.6648 9.58693 15.6277C9.69865 15.5906 9.80108 15.5299 9.8873 15.4497L11.6765 13.6605L12.8642 14.8481C11.2824 16.5166 10.0493 18.4838 9.23695 20.6345C8.42457 22.7853 8.04923 25.0765 8.1329 27.374C8.21656 29.6716 8.75754 31.9294 9.7242 34.0153C10.6909 36.1013 12.0638 37.9736 13.7627 39.5227L9.83257 46.1952C9.76134 46.3137 9.72293 46.449 9.7213 46.5872C9.71967 46.7255 9.75487 46.8616 9.82329 46.9818C9.89171 47.1019 9.99088 47.2016 10.1106 47.2707C10.2303 47.3398 10.3663 47.3758 10.5045 47.375H15.5207C15.6654 47.3767 15.8076 47.3372 15.9307 47.2611C16.0538 47.185 16.1528 47.0755 16.216 46.9453L18.4038 42.562C20.6125 43.5471 23.0032 44.0581 25.4216 44.0622C27.84 44.0662 30.2324 43.5632 32.4443 42.5855L34.6321 46.9453C34.6961 47.0749 34.7953 47.1838 34.9182 47.2598C35.0412 47.3357 35.183 47.3757 35.3275 47.375H40.3358C40.474 47.3758 40.61 47.3398 40.7297 47.2707C40.8494 47.2016 40.9486 47.1019 41.017 46.9817C41.0854 46.8616 41.1206 46.7254 41.119 46.5872C41.1173 46.449 41.0789 46.3137 41.0077 46.1952L37.1011 39.5539C38.8887 37.9323 40.3169 35.9544 41.2939 33.7475C42.2709 31.5405 42.7749 29.1535 42.7735 26.74ZM9.3872 13.7308C8.12944 11.695 10.8225 8.99309 12.8564 10.2696L9.3872 13.7308ZM38.1402 10.6133C40.1718 9.36788 42.8712 12.0278 41.6093 14.0747C40.7434 13.2138 39.0025 11.4777 38.1402 10.6133ZM22.998 6.93324C23.5514 4.58697 27.3438 4.58749 27.897 6.9333L22.998 6.93324ZM15.0363 45.8124H11.8719L14.9815 40.5305C15.6219 41.0295 16.3012 41.4763 17.013 41.8666L15.0363 45.8124ZM38.9685 45.8124H35.8119L33.8429 41.89C34.5529 41.4996 35.232 41.0556 35.8744 40.5618L38.9685 45.8124ZM32.4522 40.8587C29.3815 42.3819 25.8979 42.8628 22.5294 42.2284C19.1608 41.594 16.0909 39.8789 13.7846 37.343C11.4783 34.8071 10.0615 31.5886 9.7487 28.1752C9.43591 24.7617 10.2442 21.3393 12.0512 18.4265C13.8582 15.5138 16.5654 13.2693 19.7625 12.0333C22.9597 10.7972 26.4726 10.637 29.769 11.5768C33.0654 12.5166 35.9657 14.5052 38.0303 17.2414C40.095 19.9776 41.2116 23.3122 41.2109 26.7399C41.2175 29.6769 40.4003 32.5569 38.852 35.0527C37.3037 37.5485 35.0865 39.56 32.4522 40.8587ZM24.7169 17.2811V15.43C24.7169 15.2228 24.7993 15.024 24.9458 14.8775C25.0923 14.731 25.2911 14.6487 25.4983 14.6487C25.7055 14.6487 25.9043 14.731 26.0508 14.8775C26.1973 15.024 26.2796 15.2228 26.2796 15.43V17.2811C26.2796 17.4884 26.1973 17.6871 26.0508 17.8336C25.9043 17.9802 25.7055 18.0625 25.4983 18.0625C25.2911 18.0625 25.0923 17.9802 24.9458 17.8336C24.7993 17.6871 24.7169 17.4884 24.7169 17.2811ZM19.3483 19.4633C19.4211 19.5358 19.4789 19.622 19.5184 19.7168C19.5579 19.8117 19.5783 19.9134 19.5784 20.0161C19.5785 20.1189 19.5584 20.2206 19.5191 20.3156C19.4798 20.4105 19.4222 20.4968 19.3496 20.5694C19.2769 20.6421 19.1907 20.6997 19.0957 20.739C19.0008 20.7782 18.899 20.7984 18.7963 20.7983C18.6936 20.7981 18.5918 20.7778 18.497 20.7383C18.4021 20.6988 18.316 20.641 18.2435 20.5682L16.9349 19.2592C16.7884 19.1127 16.7061 18.914 16.7061 18.7068C16.7061 18.4996 16.7884 18.3009 16.9349 18.1544C17.0814 18.0079 17.2802 17.9256 17.4874 17.9256C17.6946 17.9256 17.8933 18.0079 18.0398 18.1544L19.3483 19.4633ZM16.7724 26.6887C16.7725 26.7914 16.7523 26.893 16.713 26.9878C16.6738 27.0826 16.6163 27.1688 16.5437 27.2414C16.4711 27.3139 16.385 27.3715 16.2901 27.4107C16.1953 27.45 16.0937 27.4702 15.9911 27.4701H14.14C13.9328 27.4701 13.734 27.3878 13.5875 27.2412C13.441 27.0947 13.3587 26.896 13.3587 26.6888C13.3587 26.4816 13.441 26.2828 13.5875 26.1363C13.734 25.9898 13.9328 25.9075 14.14 25.9075H15.9911C16.0937 25.9074 16.1953 25.9276 16.2901 25.9669C16.3849 26.0061 16.471 26.0637 16.5436 26.1362C16.6162 26.2088 16.6737 26.2949 16.713 26.3897C16.7522 26.4845 16.7724 26.5861 16.7724 26.6887ZM19.2781 32.838C19.3507 32.9105 19.4083 32.9966 19.4476 33.0914C19.4868 33.1862 19.5071 33.2878 19.5071 33.3904C19.5071 33.493 19.4868 33.5946 19.4476 33.6894C19.4083 33.7842 19.3507 33.8703 19.2781 33.9428L17.9688 35.2522C17.8964 35.3255 17.8102 35.3839 17.7152 35.4238C17.6202 35.4637 17.5183 35.4845 17.4152 35.4848C17.3122 35.4852 17.2101 35.4651 17.1148 35.4259C17.0195 35.3866 16.933 35.3289 16.8601 35.256C16.7873 35.1831 16.7295 35.0966 16.6903 35.0013C16.651 34.906 16.6309 34.8039 16.6313 34.7009C16.6317 34.5978 16.6524 34.4959 16.6923 34.4009C16.7322 34.3059 16.7906 34.2197 16.8639 34.1474L18.1733 32.838C18.2458 32.7654 18.332 32.7078 18.4267 32.6686C18.5215 32.6293 18.6231 32.6091 18.7257 32.6091C18.8283 32.609 18.9299 32.6293 19.0247 32.6685C19.1195 32.7078 19.2056 32.7654 19.2781 32.838ZM26.1797 36.196V38.0471C26.1797 38.2543 26.0974 38.453 25.9508 38.5996C25.8043 38.7461 25.6056 38.8284 25.3984 38.8284C25.1911 38.8284 24.9924 38.7461 24.8459 38.5996C24.6993 38.453 24.617 38.2543 24.617 38.0471V36.196C24.617 35.9888 24.6993 35.79 24.8459 35.6435C24.9924 35.497 25.1911 35.4146 25.3984 35.4146C25.6056 35.4146 25.8043 35.497 25.9508 35.6435C26.0974 35.79 26.1797 35.9888 26.1797 36.196ZM33.9617 34.2183C34.0351 34.2906 34.0934 34.3768 34.1333 34.4718C34.1733 34.5668 34.194 34.6688 34.1944 34.7718C34.1947 34.8749 34.1747 34.977 34.1354 35.0722C34.0961 35.1675 34.0384 35.2541 33.9655 35.3269C33.8927 35.3998 33.8061 35.4575 33.7108 35.4968C33.6156 35.5361 33.5135 35.5561 33.4104 35.5557C33.3074 35.5554 33.2054 35.5346 33.1104 35.4947C33.0154 35.4548 32.9292 35.3964 32.8569 35.3231L31.5483 34.0138C31.4757 33.9412 31.4182 33.8551 31.3789 33.7603C31.3397 33.6655 31.3195 33.5639 31.3195 33.4613C31.3195 33.3587 31.3397 33.2572 31.3789 33.1624C31.4182 33.0676 31.4757 32.9814 31.5483 32.9089C31.6208 32.8364 31.707 32.7788 31.8017 32.7395C31.8965 32.7003 31.9981 32.6801 32.1007 32.6801C32.2033 32.6801 32.3049 32.7003 32.3997 32.7395C32.4945 32.7788 32.5806 32.8364 32.6532 32.9089L33.9617 34.2183ZM37.538 26.7888C37.5381 26.8914 37.5179 26.993 37.4787 27.0878C37.4394 27.1827 37.3819 27.2688 37.3093 27.3414C37.2367 27.4139 37.1506 27.4715 37.0557 27.5107C36.9609 27.55 36.8593 27.5701 36.7567 27.5701H34.9056C34.6984 27.5701 34.4996 27.4877 34.3531 27.3412C34.2066 27.1947 34.1242 26.996 34.1242 26.7887C34.1242 26.5815 34.2066 26.3828 34.3531 26.2363C34.4996 26.0897 34.6984 26.0074 34.9056 26.0074H36.7567C36.8593 26.0074 36.9609 26.0275 37.0557 26.0668C37.1505 26.106 37.2367 26.1636 37.3093 26.2361C37.3818 26.3087 37.4394 26.3949 37.4786 26.4897C37.5179 26.5845 37.5381 26.6861 37.538 26.7888ZM31.6185 20.6392C31.5459 20.5667 31.4883 20.4805 31.4491 20.3858C31.4098 20.291 31.3896 20.1894 31.3896 20.0868C31.3896 19.9842 31.4098 19.8826 31.4491 19.7878C31.4883 19.693 31.5459 19.6069 31.6185 19.5344L32.9278 18.225C33.0003 18.1524 33.0865 18.0949 33.1812 18.0556C33.276 18.0164 33.3776 17.9962 33.4802 17.9962C33.5828 17.9961 33.6844 18.0164 33.7792 18.0556C33.874 18.0949 33.9601 18.1524 34.0326 18.225C34.1052 18.2975 34.1627 18.3836 34.202 18.4784C34.2413 18.5732 34.2615 18.6748 34.2615 18.7774C34.2615 18.88 34.2413 18.9816 34.202 19.0764C34.1628 19.1711 34.1052 19.2573 34.0327 19.3298L32.7233 20.6392C32.6508 20.7118 32.5646 20.7693 32.4699 20.8086C32.3751 20.8479 32.2735 20.8681 32.1709 20.8681C32.0683 20.8681 31.9667 20.8479 31.8719 20.8086C31.7771 20.7693 31.691 20.7118 31.6185 20.6392ZM26.2796 24.482V21.2238C26.2796 21.0165 26.1973 20.8178 26.0508 20.6713C25.9043 20.5247 25.7055 20.4424 25.4983 20.4424C25.2911 20.4424 25.0923 20.5247 24.9458 20.6713C24.7993 20.8178 24.7169 21.0165 24.7169 21.2238V24.482C24.261 24.6432 23.8661 24.9415 23.5864 25.3359C23.3066 25.7304 23.1557 26.2017 23.1543 26.6853C23.1535 27.0256 23.2282 27.3618 23.373 27.6698L20.4665 30.5138C20.3925 30.5855 20.3333 30.6711 20.2925 30.7657C20.2516 30.8603 20.2299 30.962 20.2285 31.0651C20.2272 31.1681 20.2462 31.2704 20.2844 31.3661C20.3227 31.4617 20.3795 31.5489 20.4516 31.6225C20.5237 31.6961 20.6096 31.7548 20.7045 31.7951C20.7993 31.8354 20.9012 31.8566 21.0042 31.8574C21.1072 31.8582 21.2094 31.8386 21.3049 31.7998C21.4003 31.7609 21.4871 31.7036 21.5604 31.6311L24.4669 28.7871C24.7872 28.9469 25.1403 29.0298 25.4983 29.0293C26.0509 29.0302 26.586 28.8355 27.0088 28.4798C27.4316 28.124 27.7149 27.6301 27.8085 27.0854C27.9021 26.5408 27.7999 25.9807 27.5201 25.5042C27.2403 25.0277 26.8008 24.6655 26.2796 24.482ZM25.4983 27.4666C25.3438 27.4666 25.1927 27.4208 25.0642 27.3349C24.9357 27.2491 24.8356 27.127 24.7765 26.9843C24.7173 26.8415 24.7019 26.6844 24.732 26.5329C24.7622 26.3813 24.8366 26.2421 24.9458 26.1328C25.0551 26.0236 25.1943 25.9491 25.3459 25.919C25.4974 25.8888 25.6545 25.9043 25.7973 25.9634C25.9401 26.0226 26.0621 26.1227 26.1479 26.2512C26.2338 26.3797 26.2796 26.5307 26.2796 26.6853C26.2792 26.8924 26.1968 27.0909 26.0504 27.2373C25.9039 27.3838 25.7054 27.4662 25.4983 27.4666ZM6.46469 22.5479C6.78715 22.7496 7.05302 23.0301 7.23733 23.3628C7.42163 23.6956 7.51833 24.0697 7.51833 24.4501C7.51833 24.8305 7.42163 25.2046 7.23733 25.5373C7.05302 25.8701 6.78715 26.1505 6.46469 26.3523C6.08709 26.6666 5.96502 26.791 5.96502 27.0535C5.96502 27.3159 6.08709 27.4403 6.46479 27.7547C6.7896 27.9549 7.05779 28.2349 7.24384 28.568C7.42988 28.9011 7.52759 29.2763 7.52767 29.6578C7.52775 30.0394 7.43019 30.4146 7.24428 30.7478C7.05838 31.081 6.7903 31.3611 6.46557 31.5614C6.08711 31.8773 5.96504 32.0017 5.96504 32.2657C5.96504 32.5297 6.08711 32.6541 6.46557 32.9699C6.78141 33.1798 7.04256 33.462 7.2273 33.7931C7.41204 34.1242 7.51503 34.4947 7.52768 34.8737C7.52768 35.0809 7.44536 35.2796 7.29884 35.4261C7.15231 35.5727 6.95358 35.655 6.74636 35.655C6.53914 35.655 6.34041 35.5727 6.19388 35.4261C6.04736 35.2796 5.96504 35.0809 5.96504 34.8737C5.96504 34.6097 5.84297 34.4853 5.4645 34.1694C5.14212 33.9672 4.87637 33.6865 4.69216 33.3535C4.50795 33.0205 4.41132 32.6462 4.41133 32.2657C4.41134 31.8851 4.50799 31.5108 4.69221 31.1779C4.87644 30.8449 5.1422 30.5641 5.46459 30.362C6.15014 29.8094 6.152 29.5076 5.4645 28.9557C5.14231 28.7537 4.87671 28.4732 4.69264 28.1404C4.50856 27.8076 4.41204 27.4336 4.41213 27.0533C4.41221 26.673 4.5089 26.299 4.69313 25.9663C4.87735 25.6336 5.14307 25.3532 5.46536 25.1513C5.84297 24.8366 5.96504 24.713 5.96504 24.4501C5.96504 24.1872 5.84297 24.0636 5.46526 23.7489C5.14044 23.5492 4.87219 23.2696 4.68612 22.9368C4.50004 22.604 4.40234 22.2291 4.40234 21.8478C4.40234 21.4665 4.50004 21.0916 4.68612 20.7588C4.87219 20.426 5.14044 20.1464 5.46526 19.9467C5.86433 19.6145 5.96504 19.4973 5.96504 19.2471C5.96913 19.0426 6.05326 18.8478 6.19934 18.7046C6.34542 18.5614 6.54183 18.4812 6.74638 18.4812C6.95094 18.4812 7.14733 18.5615 7.29341 18.7046C7.43949 18.8478 7.52359 19.0426 7.52768 19.2471C7.51493 19.6257 7.41181 19.9958 7.22691 20.3264C7.04201 20.6571 6.78071 20.9387 6.4648 21.1477C5.76257 21.7209 5.78789 21.9899 6.46469 22.5479ZM45.5321 34.1694C45.1537 34.4853 45.0316 34.6097 45.0316 34.8737C45.0316 35.0809 44.9493 35.2796 44.8027 35.4261C44.6562 35.5727 44.4575 35.655 44.2503 35.655C44.043 35.655 43.8443 35.5727 43.6978 35.4261C43.5513 35.2796 43.4689 35.0809 43.4689 34.8737C43.4816 34.4947 43.5846 34.1242 43.7693 33.7931C43.9541 33.462 44.2152 33.1798 44.5311 32.9699C44.9095 32.6541 45.0316 32.5297 45.0316 32.2657C45.0316 32.0017 44.9095 31.8773 44.5311 31.5614C44.2063 31.3611 43.9382 31.081 43.7523 30.7478C43.5664 30.4146 43.4689 30.0394 43.469 29.6578C43.469 29.2763 43.5667 28.9011 43.7528 28.568C43.9388 28.2349 44.207 27.9549 44.5318 27.7547C44.9095 27.4403 45.0316 27.316 45.0316 27.0535C45.0316 26.791 44.9095 26.6666 44.5318 26.3523C44.2096 26.1503 43.944 25.8698 43.7598 25.5371C43.5757 25.2044 43.4791 24.8303 43.4791 24.45C43.4791 24.0698 43.5757 23.6957 43.7599 23.363C43.944 23.0303 44.2097 22.7498 44.5319 22.5478C45.2085 21.987 45.2342 21.724 44.5319 21.1477C44.216 20.9386 43.9546 20.657 43.7697 20.3264C43.5848 19.9957 43.4817 19.6257 43.469 19.247C43.4731 19.0425 43.5572 18.8478 43.7033 18.7046C43.8493 18.5614 44.0457 18.4812 44.2503 18.4812C44.4549 18.4812 44.6513 18.5614 44.7973 18.7046C44.9434 18.8478 45.0275 19.0426 45.0316 19.2471C45.0316 19.4973 45.1323 19.6144 45.5314 19.9467C45.8562 20.1464 46.1244 20.426 46.3105 20.7588C46.4966 21.0916 46.5943 21.4665 46.5943 21.8478C46.5943 22.2291 46.4966 22.604 46.3105 22.9368C46.1244 23.2696 45.8562 23.5492 45.5314 23.7489C45.1537 24.0636 45.0316 24.1872 45.0316 24.45C45.0316 24.7129 45.1537 24.8365 45.5314 25.1513C45.8536 25.3532 46.1193 25.6336 46.3036 25.9663C46.4878 26.299 46.5844 26.673 46.5845 27.0533C46.5846 27.4336 46.488 27.8076 46.3039 28.1404C46.1198 28.4732 45.8542 28.7537 45.532 28.9557C44.8449 29.5088 44.8462 29.8081 45.5321 30.3619C45.855 30.5638 46.1212 30.8444 46.3058 31.1774C46.4903 31.5105 46.5871 31.885 46.5871 32.2657C46.5871 32.6464 46.4903 33.0209 46.3057 33.354C46.1212 33.687 45.8549 33.9676 45.5321 34.1694Z" fill="#2E5077"/>
</svg>
